# xmcd
#
# Track frame offsets:
#	150
#	14622
#	28085
#	45197
#	60195
#	78445
#	96677
#	110967
#	121560
#	137585
#	155142
#	171410
#	184315
#	200797
#	214215
#
# Disc length: 3068 seconds
#
# Revision: 4
# Processed by: cddbd v1.5.2PL0 Copyright (c) Steve Scherf et al.
# Submitted via: audiograbber 1.83.01
#
DISCID=da0bfa0f
DTITLE=Gina Jeffreys - The Flame
DYEAR=1994
DGENRE=Country
TTITLE0=Girls' Night Out
TTITLE1=My Shoes Keep Walking Back To You
TTITLE2=Standing Too Close To The Flame
TTITLE3=Last Night I Dreamed Of Loving You
TTITLE4=Rocking Chair
TTITLE5=I Don't Want To Be Alone Tonight
TTITLE6=Getting Used To Getting Over You
TTITLE7=I Do My Crying At Night
TTITLE8=Affairs Of The Heart
TTITLE9=She Knows
TTITLE10=Men
TTITLE11=Wildflower
TTITLE12=I Don't Want Tonight To Be Over
TTITLE13=Distant Star
TTITLE14=Two Stars Fell
EXTD=YEAR: 1994 ID3G: 2
EXTT0=
EXTT1=
EXTT2=
EXTT3=
EXTT4=
EXTT5=
EXTT6=
EXTT7=
EXTT8=
EXTT9=
EXTT10=
EXTT11=
EXTT12=
EXTT13=
EXTT14=
PLAYORDER=
